<?xml version="1.0" encoding="utf-8"?>
<!-- Generator: Adobe Illustrator 25.0.0, SVG Export Plug-In . SVG Version: 6.00 Build 0)  -->
<svg version="1.1" id="Layer_1" xmlns="http://www.w3.org/2000/svg" xmlns:xlink="http://www.w3.org/1999/xlink" x="0px" y="0px"
	 viewBox="0 0 600 600" style="enable-background:new 0 0 600 600;" xml:space="preserve">
<style type="text/css">
	.st0{fill-rule:evenodd;clip-rule:evenodd;fill:#FFFFFF;}
</style>
<g>
	<path class="st0" d="M377.71,186.16c4.86,3.57,9.62,7.59,14.56,12.24c13.99,14.02,22.56,26.67,30.2,44.97
		c0.92,2.33,1.75,4.62,2.54,7c-0.43-1.29-1.97-6.12-2.54-7c-7.67-18.3-16.21-30.88-30.29-44.87c-9.52-8.9-18.42-15.48-28.63-20.97
		l-0.18-0.1l-0.33-0.17l-0.19-0.1l-1.57-0.8l-0.01-0.01c-4.79-2.34-9.85-4.5-15.39-6.58c-16.72-5.72-30.61-8.22-47.23-8.37h-0.05h0
		c-2.72,0-5.52,0.07-8.41,0.19c-20.41,1.5-35.57,5.49-53.99,14.37c-17.33,8.96-29.27,18.15-42.37,32.58
		c-12.57,14.66-20.17,27.52-26.92,45.62c-6.4,18.88-8.58,33.96-7.92,53.89c0.46,8.32,1.4,15.57,3.16,23.73
		c-0.03-0.17-0.04-0.35-0.07-0.52c-1.67-7.95-2.61-15.1-3.07-23.21c-0.43-12.1,0.19-22.45,2.16-32.95
		c-1.73,9.08-2.54,18.28-2.64,28.75c0.25,14.89,1.92,27.22,5.58,40.25c1.95,5.49,4.32,11.03,7.23,16.91
		c0.87,1.64,1.74,3.24,2.62,4.79c-1.09-2.18-2.14-4.43-3.18-6.78c-7.98-19.09-11.41-34.51-12.15-55.18
		c-0.07-13.14,1.03-24.23,3.72-35.63c-0.91,3.39-1.68,6.73-2.32,10.09c-1.2,8.04-1.69,16.28-1.59,25.54
		c0.83,20.64,4.35,36.13,12.36,55.17c1.13,2.54,2.28,4.96,3.46,7.31c8.05,14.08,16.68,24.47,29.49,35.67
		c14.47,11.94,27.15,19.02,44.94,24.98c18.29,5.48,32.87,6.95,51.9,5.23c11.01-1.26,19.75-3.3,30.17-7.09
		c-10.35,4.06-19.11,6.28-30.14,7.72c-18.1,1.91-32.19,0.81-49.27-3.88c17,5.2,31.12,6.81,49.35,5.84
		c19.03-1.59,33.16-5.39,50.33-13.73c12.73-6.57,22.07-13.19,32.47-23.04c20.75-20.58-14.61,14.81-31.79,24.49
		c-17.28,8.71-31.66,12.73-50.93,14.42c-10.77,0.67-19.75,0.36-30.4-1.26c-8.11-1.24-15.12-2.89-22.92-5.42
		c-12.06-4.19-21.83-8.86-31.35-15.12c9.34,6.63,18.96,11.7,30.86,16.43c18.8,6.86,33.93,9.4,53.95,9.18
		c5.09-0.2,9.87-0.57,14.44-1.12c13.33-2.22,24.98-6.12,38.39-12.73c1.87-0.51,10.03-5.64,12.08-6.98c2.38-1.4,4.65-2.83,6.84-4.29
		c2.57-1.93,5.13-4,7.78-6.28c-1.78,1.61-3.52,3.12-5.25,4.55c7.5-5.26,14.12-11.06,20.92-18.02c12.53-13.58,24.08-26.5,0.53,0.48
		c-1.53,2.49-11.3,10.99-13.88,13.11c-8.18,7.32-15.6,12.66-24.86,17.84c10.96-5.22,19.95-10.76,28.71-17.8
		c4-3.45,7.94-7.26,11.99-11.55c7.73-8.59,13.44-16.46,18.64-25.83c3.81-5.86,7.2-12.17,10.51-19.38
		c8.11-19.1,11.29-34.72,11.57-55.46c-0.32-19.34-3.14-34.24-9.93-51.57c4.8,10.1,8.03,19.34,10.79,30.7
		c0.64,3.51,2.78,17.71,2.3,20.74c0.43,26.45,1.04,34.94,0.72-0.03c-0.59-15.02-2.59-27.37-7.15-41.64
		c-1.06-2.84-5.21-13.37-6.73-15.32c-7.1-13.55-14.33-24-23.86-34.14c-3.09-3.59-6.47-7.15-10.21-10.8
		c-15.1-13.93-28.53-22.41-47.62-30.01c-13.47-4.91-25.15-7.67-37.83-8.76c12.79,0.68,24.64,3.01,38.35,7.38
		c3.52,1.21,6.83,2.46,10.06,3.81c17.96,8.2,30.54,17.15,44.33,31.67c0.88,0.65,4.15,4.76,5.04,5.86c-1.65-2.01-3.3-3.93-5.04-5.86
		c-12.83-13.56-24.71-22.32-40.81-30.14c2.9,1.3,5.78,2.71,8.75,4.27c10.27,5.69,18.41,11.35,27.36,18.99
		c10.11,9.01,17.93,17.6,24.86,27.52c3.08,4.69,5.93,9.69,8.79,15.3c-1.74-3.55-3.48-6.87-5.27-10.02c2.56,4.02,5.03,8.29,7.48,12.9
		c5.08,10.68,9.26,25.74,12.2,37.81c1.32,8.65,1.76,17.51,1.47,27.51c-1.19,20.24-4.95,35.4-13.41,53.82
		c8.68-18.39,12.59-33.53,13.96-53.81c0.29-7.47,0.16-14.32-0.45-20.92c1.33,5.77,2.28,10.25,2.8,12.28
		c0.01,2.8-0.04,5.67-0.16,8.63c-1.32,20.54-5.08,36.11-13.28,54.99c-8.02,17.22-16.43,29.68-29.21,43.04
		c7.07-8.42,12.31-16.34,17.55-26.45c1.73-3,8.06-14.84,8.63-17.82c12.91-34.84,6.47-18.05-0.69-0.28
		c-5.63,12.91-11.72,23.49-20.53,34.47c-1.5,2.05-7.52,10.03-9.15,11.21c-10.58,11.35-20.43,19.41-32.55,26.47
		c-4.23,2.22-8.72,4.33-13.59,6.41c-19.34,7.58-34.95,10.69-55.71,10.95c-13.28-0.21-24.48-1.58-35.98-4.58
		c11.54,2.57,22.73,3.49,35.97,3.12c8.5-0.41,15.91-1.39,24.22-3.17c10.92-2.36,19.75-5.35,29.94-9.98
		c18.06-8.73,30.54-17.93,44.09-32.73l0.19-0.24c13.64-14.31,22.17-27.06,30.24-45.2c8.07-19.5,11.4-35.4,12.08-56.5
		c-0.86,21.03-4.35,36.94-12.58,56.32c-6.98,15.35-14.33,26.87-24.88,38.71c3.1-4.67,6.33-10.2,9.3-15.54
		c-4.88,6.83-10.49,13.17-17.38,19.82c7.56-7.44,13.54-14.49,18.71-22.23c8.49-15.52,14.07-28.03,6.14-10.59
		c-0.57,1.17-1.14,2.32-1.71,3.44c2.58-4.49,4.99-9.27,7.35-14.54c7.89-19.07,10.94-34.59,11.07-55.23
		c-0.52-20.88-3.89-36.51-12.14-55.69c-3.06-6.57-6.19-12.42-9.62-17.87c-2.81-4.02-5.77-7.8-8.98-11.49
		c7,8.83,12.52,18.16,17.79,29.73c6.35,15.03,9.42,27.39,10.9,43.65c-1.76-16.19-5.03-28.43-11.59-43.33
		c-8.54-18.03-17.63-30.52-32.1-44.25C387.51,193.55,382.66,189.64,377.71,186.16L377.71,186.16z M167.46,252.1
		c6.5-17.15,13.92-29.66,25.98-43.89c13.08-14.59,25.02-23.9,42.39-32.97l2.56-1.22l0.01-0.01l0.01,0
		c16.67-7.41,30.94-10.92,49.17-12.31c-19.13,1.74-33.71,5.86-51.32,14.46c-17.21,9.02-29.13,18.26-42.19,32.63
		c-12.56,14.57-20.28,27.43-27.28,45.35l-0.58,1.62C166.61,254.55,167.03,253.33,167.46,252.1L167.46,252.1z M156.58,289.66
		c-0.23,3.02-0.35,6.1-0.38,9.28c-0.01-1.34,0-2.66,0.03-3.96C156.32,293.17,156.44,291.41,156.58,289.66L156.58,289.66z
		 M247.81,167.13l0.13-0.05c13.49-5.08,26.28-7.61,42.11-8.63c21.03-0.73,36.97,1.7,56.78,8.78c3.24,1.27,6.3,2.56,9.24,3.9
		c-2.97-1.28-6.06-2.51-9.31-3.71c-7.86-2.65-15.11-4.6-22.31-5.93c-10.92-2.15-21.74-2.82-34.38-2.33
		c-20.78,1.43-36.21,5.45-54.99,14.47c-5.25,2.71-10.02,5.45-14.47,8.34c6.36-4.47,13.19-8.41,21.03-12.23
		c-17.17,8.06-29.71,16.71-43.15,30.03l-0.02,0.01l-0.01,0.01l-2.03,2.12l-0.08,0.09c3.88-3.97,7.73-7.52,11.71-10.79l0.02-0.01
		l0.17-0.14c3.68-3.06,7.48-5.87,11.53-8.54c7.27-5.12,15.12-9.53,24.34-13.83C245.35,168.15,246.59,167.63,247.81,167.13
		L247.81,167.13z M205.75,414.2c12.68,10.56,24.85,17.7,41.06,24.27c18.97,7.12,34.48,10.01,54.73,10.2
		c4.14-0.07,8.07-0.26,11.87-0.57c-3.79,0.39-7.73,0.66-11.87,0.82c-20.39,0.18-35.95-2.54-55.1-9.54
		c-19.09-7.59-32.61-16.01-47.82-29.82c-13.32-12.77-22.27-24.58-30.26-40.01c8.05,14.98,16.85,26.19,29.89,38.35
		C200.79,410.16,203.28,412.24,205.75,414.2L205.75,414.2z M151.47,304.7l-0.04-0.85c-0.16-21.05,2.58-37.1,9.7-56.91
		c7.72-19.8,16.32-33.85,30.4-49.77c15.28-16.35,29.15-26.48,49.26-36.28c20.72-9.35,37.64-13.59,60.31-15.03
		c22.28-0.76,39.37,1.69,60.57,8.56c12.89,4.48,23.18,9.36,34.83,16.47c-11.78-6.88-22.13-11.56-35.07-15.87
		c-20.68-6.38-37.44-8.71-58.85-8c21.29-0.21,37.84,2.65,58.09,9.88c20.77,8.09,35.36,17.09,51.94,31.97
		c13.41,12.69,22.24,24.07,31.29,40.17c16.93,33.08-10.09-17.52-32.47-38.96c-16.47-14.44-31.14-23.3-51.6-31.12
		c-11.5-4.11-21.47-6.6-33.53-8.35c-8.69-1.04-16.44-1.37-25.19-1.09c-14.9,0.81-27.25,2.91-39.91,6.96
		c12.7-3.6,25.05-5.22,39.92-5.43c21.31,0.35,37.46,3.63,57.23,11.58c4.97,2.18,9.56,4.38,13.88,6.72
		c12.98,6.33,23.84,13.8,35.71,24.33c2.19,1.33,10.1,10.02,12.17,12.39c9.68,12.16,16.17,23.4,22.27,37.75
		c13.19,33.8,9.46,25.79-0.68,0.29c-0.65-3.11-7.96-16.1-9.87-19.27c-6.86-10-13.39-17.77-21.76-25.81
		c12.18,13.44,20.16,26.1,27.25,43.04c6.35,14.02,9.89,26.38,12.28,42.26l0.51,4.7c-0.57-15.34-3.26-28.91-8.57-44.84
		c7.11,20.71,9.74,37.36,9.09,59.24c-1.16,20.71-4.79,36.29-12.87,55.38c-8.53,18.64-17.41,31.67-31.73,46.34
		c-5.67,5.48-11.09,10.16-16.68,14.32c-9.08,7.48-18.75,13.38-30.79,19.1c-19.6,8.57-35.63,12.25-57.01,12.95
		c-20.73,0.08-36.54-2.82-55.93-10.1c-19.26-7.87-32.86-16.54-48.12-30.7c-15.48-15.2-24.92-28.91-33.83-48.7
		c-8.32-20.07-11.85-36.45-12.39-58.18c0.05-17.73,2.16-31.9,7.2-47.72c-0.51,1.7-0.99,3.39-1.44,5.07l-0.02,0.08l-0.02,0.07
		c-0.77,2.82-1.45,5.6-2.04,8.38C152.35,281.07,151.3,292.03,151.47,304.7L151.47,304.7z M380.57,176.83
		c3.06,1.77,6.04,3.63,8.98,5.64c5.33,4.02,10.52,8.54,15.91,13.79c3.17,3.28,6.08,6.48,8.76,9.69c-4.42-5.09-9.32-10.01-14.96-15.1
		C392.89,185.41,386.82,180.83,380.57,176.83z"/>
	<path class="st0" d="M364.73,275.69c1.96,1.22,3.08,3.57,3.32,6.89c0.59,2.1,1.23,3.52,2.01,4.31c0.78,0.78,2.25,1.42,4.5,2
		c0.44,0.15,1.08,0.2,1.91,0.2c2.64,0,4.25-1.51,4.79-4.59c0.44-1.56,0.64-2.89,0.64-4.01c0-3.91-1.66-6.99-5.04-9.19
		c-5.28-4.5-11.29-6.7-17.99-6.7c-2.69,0-5.13,0.25-7.33,0.83c-4.2,0.83-8.02,2.49-11.44,5.04c-3.42,2.49-6.94,5.76-10.56,9.82
		c-8.21,9.25-14.62,19.94-19.25,32.05c-0.96,0.78-2,1.65-3.14,2.62l-8.49,6.89c0-1.88-0.14-3.25-0.43-4.05
		c-0.23-4.44-0.61-7.6-0.99-9.49c-2.03-7.17-7.03-10.71-14.95-10.71c-3.63,0-7.08,1.04-10.33,3.21c-5.8,4.2-9.91,8.21-12.32,12.12
		c-4.2,6.46-7.22,12.03-9.1,16.61c-2.83,6.18-6.7,15.76-11.51,28.68c-0.43,0.71-0.71,1.42-0.94,2.13c-0.19,0.75-0.43,1.42-0.71,1.93
		l-1.61,3.63h-0.61c0.42-1.74,0.89-4.53,1.41-8.3c0.28-1.18,0.66-3.21,1.13-6.04c0.47-2.83,0.94-5.33,1.51-7.5
		c1.08-4.86,2.83-12.12,5.24-21.85l2.45-9.3c0.23-0.8,0.57-1.41,0.9-1.88c0.33-0.47,0.99-0.85,1.94-1.14
		c11.32-3.91,22.17-10.1,32.55-18.59c14.01-11.61,26.75-24.49,38.22-38.64c11.7-14.15,19.81-28.78,24.25-43.88
		c1.89-6.04,2.83-11.98,2.83-17.79c0-2.69-0.19-5.47-0.61-8.3c-0.66-5.38-3.16-9.96-7.45-13.73c-4.34-3.77-9.24-5.66-14.77-5.66
		c-5.52-0.43-11.14,1.23-16.8,4.86c-7.55,4.72-13.97,9.91-19.2,15.57c-27.22,26.94-47.46,61.01-60.67,102.1
		c-3.29,10.35-5.93,21.08-7.89,32.17c-45.13,33.58-111.21-20.79-148.57-21.34c-33.44-0.47-38.86,44.66-3.39,47.45
		c-1.15-38.63,102.77,15.14,150.41-16.34c-0.4,2.92-0.77,5.86-1.08,8.83c-1.18,10.24-1.79,19.02-1.79,26.28
		c0,2.26,0.14,5.56,0.37,9.9c0.71,5.8,1.98,10.29,3.87,13.54c1.09,2.31,2.59,3.96,4.62,4.96c2.03,0.99,4.11,1.51,6.27,1.51
		c3.78,0,6.13-1.46,7.08-4.44c0.28-0.8,0.57-1.65,0.9-2.55c0.37-0.85,0.71-1.84,1.13-2.92c0.52,0.8,0.8,1.89,0.8,3.25
		c0,2.83,0.57,4.91,1.74,6.28c1.14,1.32,3.11,2.22,5.95,2.59c1.89,0.29,3.25,0.43,4.06,0.43c4.43,0,8.49-1.42,12.13-4.25
		c3.63-3.11,5.99-5.28,7.08-6.47c12.64-15.66,20.9-32.18,24.67-49.54c0.38-1.75,1.32-3.4,2.83-4.86c2.56-2.2,4.96-4.29,7.22-6.28
		c-0.54,2-1.04,4.03-1.49,6.1c-1.13,6.16-1.66,10.9-1.66,14.23c0,3.23,0.29,6.02,0.83,8.41c2.25,12.42,8.61,20.93,19.07,25.57
		c4.06,1.66,7.97,2.49,11.73,2.49c5.87,0,11.39-2.15,16.57-6.5c7.53-6.55,12.54-15.06,16.46-21.37
		c52.12-84.46,78.82-15.74,161.6-9.07c33.71,2.71,40.46-42.55,4.85-47.74c2.02,47.35-89.15-24.34-142.89,15.33
		c-19.06,14.06-26.98,40.33-45.49,55.14c-2.1,1.66-5.38,3.66-9.83,6.06c-0.83,0.44-1.57,0.64-2.1,0.64
		c-17.39,0,6.78-75.54,21.8-91.77C358.57,278.32,361.5,276.37,364.73,275.69L364.73,275.69z M250.52,301.6
		c0.38-1.18,0.75-2.41,1.08-3.63c0.38-1.23,0.71-2.36,1.13-3.45c5.95-18.07,12.79-35.57,20.62-52.56
		c8.92-18.73,17.89-34.25,26.9-46.52c5.94-7.79,12.27-14.01,19.01-18.59c4.06-2.55,7.74-4.2,11.13-4.86h1.18
		c1.37,0,2.26,0.47,2.64,1.41c2.31,3.49,3.63,6.09,4.06,7.69c0.66,3.11,0.99,5.95,0.99,8.49c0,4.44-0.71,9.11-2.22,13.97
		c-3.78,11.84-9.01,22.69-15.76,32.55c-15.9,22.36-34.25,41.24-55.01,56.62c0,0-3.02,2.03-9.1,6.04l-5.85,3.87L250.52,301.6
		L250.52,301.6z M244.43,369.96c0.14-0.43,0.28-0.99,0.43-1.74c0.14-0.71,0.38-1.56,0.8-2.5l3.63-9.53
		c2.83-7.93,6.09-16.28,9.72-25.05c4.3-10.24,9.81-17.79,16.56-22.65l4.05-2.83c0.43,2.03,0.62,4.06,0.62,6.09
		c0,2.12-0.19,4.34-0.62,6.65c-0.51,4.44-1.74,10.81-3.63,19.02c-0.42,2.17-1.6,4.05-3.63,5.66c-2.17,1.46-5.42,4.11-9.72,7.88
		c-4.2,3.35-7.64,6.56-10.43,9.62c-2.74,3.02-5,6.37-6.75,10L244.43,369.96L244.43,369.96z M269.72,356.61
		c-2.69,6.46-5.38,12.08-7.97,16.8c-2.64,4.72-5.85,9.1-9.62,13.12c-0.14-0.38-0.28-0.85-0.52-1.32c-0.19-0.47-0.23-0.8-0.09-1.08
		c0.43-5.14,2.03-9.76,4.86-13.97c1.08-1.88,2.79-4.1,5.05-6.65l7.69-7.69C269.11,355.95,269.3,356.19,269.72,356.61z"/>
</g>
</svg>
